Movie Info
Plot:A man awakens from a coma, only to discover that someone 
has taken on his identity and that no one, (not even his wife), 
believes him. With the help of a young woman, he sets out to prove who he is. 
IMDB: http://www.imdb.com/title/tt1401152/
IMDB Rating: 7.9
Trailer:



General Info
Size: 1.30GB
Format: AVI
Runtime: 1:47:49
Subtitles: Hardcoded english for the non-english parts.



Sources
Video - Neizvestnij.2011.D.TS.ELEKTRI4KA
Audio - Unknown 2011 TS AC3 XViD - IMAGiNE
(THANKS)



Video Info
ID : 0
Format : MPEG-4 Visual
Format profile : Advanced Simple@L5
Format settings, BVOP : Yes
Format settings, QPel : No
Format settings, GMC : No warppoints
Format settings, Matrix : Default (H.263)
Muxing mode : Packed bitstream
Codec ID : XVID
Codec ID/Hint : XviD
Duration : 1h 47mn
Bit rate : 1 591 Kbps
Width : 720 pixels
Height : 288 pixels
Display aspect ratio : 2.500
Frame rate : 25.000 fps
Color space : YUV
Chroma subsampling : 4:2:0
Bit depth : 8 bits
Scan type : Progressive
Compression mode : Lossy
Bits/(Pixel*Frame) : 0.307
Stream size : 1.20 GiB (92%)
Writing library : XviD 1.0.3 (UTC 2004-12-20)



Audio Info
ID : 1
Format : AC-3
Format/Info : Audio Coding 3
Mode extension : CM (complete main)
Codec ID : 2000
Duration : 1h 47mn
Bit rate mode : Constant
Bit rate : 128 Kbps
Channel(s) : 2 channels
Channel positions : Front: L R
Sampling rate : 48.0 KHz
Bit depth : 16 bits
Compression mode : Lossy
Stream size : 98.7 MiB (7%)
Alignment : Split accross interleaves
Interleave, duration : 40 ms (1.00 video frame)



Encoders Notes
I dropped the source into vdubmod,
I increased the contrast, gamma & saturation.
I de-noised it & changed the colors with a rgb eq.
Then i sharpened it.
After that i made & hardcoded english subtitles for the non english bits.
Finaly i muxed my encode to imagines line audio.
Well its prety good for such a early release.
It deffinaltley watchable.
The audio is a bit low so you may have to turn up the volume.
Here is a screenshot comparison beetween mine & imagines encode. 
http://screenshotcomparison.com/comparison/30341
Check the sample first, to make sure your happy with the quality.
Enjoy...


I am looking for;
Cammers, Cams, Screeners (any type), Cam audio, Line audio, 
Un-released R6's R5's R4's R2's R1's, 
A 25GB+ FTP server, A Windows Server
& a syncer. 
If you can provide any of these please
contact me at illusion@hushmail.me





================================== 
http://thepiratebay.org/user/hiest
==================================





Screenz:
 
http://leetleech.org/images/59629610631623525621.jpg
 
http://leetleech.org/images/95548764101414929447.jpg
 
http://leetleech.org/images/43309788252581918693.jpg
 
http://leetleech.org/images/85401690622346316573.jpg
 
http://leetleech.org/images/69623662723088423465.jpg
 
http://leetleech.org/images/65834216909352536702.jpg
 
http://leetleech.org/images/00083865973558226940.jpg